<?xml version="1.0" encoding="iso-8859-1"?>
<!-- Generator: Adobe Illustrator 19.0.0, SVG Export Plug-In . SVG Version: 6.00 Build 0)  -->
<svg xmlns="http://www.w3.org/2000/svg" xmlns:xlink="http://www.w3.org/1999/xlink" version="1.1" id="Capa_1" x="0px" y="0px" viewBox="0 0 481.842 481.842" style="enable-background:new 0 0 481.842 481.842;" xml:space="preserve" width="512px" height="512px">
<g>
	<g>
		<path d="M477.841,294.569L477.841,294.569l-92.92-53.648l92.92-53.648c3.826-2.209,5.137-7.102,2.928-10.928l-64-110.848    c-2.209-3.826-7.102-5.137-10.928-2.928l-92.92,53.648V8.921c0-4.418-3.582-8-8-8h-128c-4.418,0-8,3.582-8,8v107.296    l-92.92-53.648c-3.826-2.209-8.719-0.898-10.928,2.928l-64,110.848c-2.209,3.826-0.898,8.719,2.928,10.928l92.92,53.648    l-92.92,53.648c-3.826,2.209-5.137,7.102-2.928,10.928l64,110.848c2.209,3.826,7.102,5.137,10.928,2.928l92.92-53.648v107.296    c0,4.418,3.582,8,8,8h128c4.418,0,8-3.582,8-8V365.625l92.92,53.648c3.826,2.209,8.719,0.898,10.928-2.928l64-110.848    C482.978,301.671,481.667,296.778,477.841,294.569z M406.913,401.417l-97.992-56.576c-3.826-2.209-8.719-0.898-10.928,2.928    c-0.702,1.216-1.072,2.596-1.072,4v113.152h-112V351.769c0-4.418-3.582-8-8-8c-1.404,0-2.784,0.37-4,1.072l-97.992,56.576    l-56-96.992l97.992-56.576c3.826-2.209,5.137-7.102,2.928-10.928c-0.702-1.216-1.712-2.226-2.928-2.928l-97.992-56.576l56-96.992    l97.992,56.576c3.826,2.209,8.719,0.898,10.928-2.928c0.702-1.216,1.072-2.596,1.072-4V16.921h112v113.152c0,4.418,3.582,8,8,8    c1.404,0,2.784-0.37,4-1.072l97.992-56.576l56,96.992l-97.992,56.576c-3.826,2.209-5.137,7.102-2.928,10.928    c0.702,1.216,1.712,2.226,2.928,2.928l97.992,56.576L406.913,401.417z" fill="#8274af"/>
	</g>
</g>
<g>
	<g>
		<path d="M272.921,176.921h-24v-9.472c12.497-4.418,19.046-18.131,14.627-30.627s-18.131-19.046-30.627-14.627    s-19.046,18.131-14.627,30.627c2.416,6.835,7.793,12.211,14.627,14.627v9.472h-24c-4.418,0-8,3.582-8,8s3.582,8,8,8h24v30.976    l-22.32,6.088c-10.428,2.869-17.661,12.344-17.68,23.16v5.456c0.003,12.228,9.199,22.499,21.352,23.848l18.648,2.072v31.512    l-6.592,1.88c-10.401,3.052-17.51,12.641-17.408,23.48c-0.078,10.118,6.275,19.169,15.816,22.536l8.184,3.48v17.512    c0,4.418,3.582,8,8,8s8-3.582,8-8v-10.704l4.872,2.064c0.988,0.425,2.052,0.643,3.128,0.64c4.418-0.004,7.997-3.589,7.993-8.007    c-0.003-3.204-1.917-6.097-4.865-7.353l-11.128-4.72v-28.72l14.592-4.168c10.291-2.979,17.383-12.391,17.408-23.104v-5.6    c-0.003-12.228-9.199-22.499-21.352-23.848l-10.648-1.192v-34.088l30.32-8.264c10.429-2.869,17.661-12.344,17.68-23.16v-3.776    C296.921,187.666,286.176,176.921,272.921,176.921z M232.921,350.049l-2.528-1.072c-3.388-1.168-5.611-4.419-5.472-8    c-0.001-3.575,2.37-6.716,5.808-7.696l2.192-0.608V350.049z M232.921,268.433l-16.88-1.912c-4.041-0.447-7.104-3.854-7.12-7.92    v-5.456c-0.001-3.609,2.414-6.771,5.896-7.72l18.104-4.936V268.433z M257.801,287.321c4.053,0.449,7.12,3.874,7.12,7.952v5.6    c0.001,3.575-2.37,6.716-5.808,7.696l-10.192,2.888v-25.152L257.801,287.321z M240.921,152.921c-4.418,0-8-3.582-8-8s3.582-8,8-8    s8,3.582,8,8S245.339,152.921,240.921,152.921z M280.921,204.697c0.001,3.609-2.414,6.771-5.896,7.72l-26.104,7.12v-26.616h24    c4.418,0,8,3.582,8,8V204.697z" fill="#8274af"/>
	</g>
</g>
<g>
</g>
<g>
</g>
<g>
</g>
<g>
</g>
<g>
</g>
<g>
</g>
<g>
</g>
<g>
</g>
<g>
</g>
<g>
</g>
<g>
</g>
<g>
</g>
<g>
</g>
<g>
</g>
<g>
</g>
</svg>
