<?xml version="1.0" encoding="iso-8859-1"?>
<!-- Generator: Adobe Illustrator 19.0.0, SVG Export Plug-In . SVG Version: 6.00 Build 0)  -->
<svg xmlns="http://www.w3.org/2000/svg" xmlns:xlink="http://www.w3.org/1999/xlink" version="1.1" id="Capa_1" x="0px" y="0px" viewBox="0 0 479.998 479.998" style="enable-background:new 0 0 479.998 479.998;" xml:space="preserve" width="512px" height="512px">
<g>
	<g>
		<path d="M455.999,415.998h-18.68c24.544-49,26.68-94.984,26.68-149.08c-0.039-41.641-11.339-82.497-32.704-118.24    c2.81-17.931-2.837-36.153-15.296-49.352l13.672-13.672c3.123-3.124,3.123-8.188,0-11.312l-72-72    c-3.124-3.123-8.188-3.123-11.312,0l-16,16c-3.123,3.124-3.123,8.188,0,11.312l2.328,2.344l-4.688,4.688l-2.344-2.344    c-3.124-3.123-8.188-3.123-11.312,0L155.999,192.686l-22.344-22.344c-3.124-3.123-8.188-3.123-11.312,0l-24,24    c-3.123,3.124-3.123,8.188,0,11.312l22.344,22.344l-6.344,6.344c-1.5,1.5-2.344,3.534-2.344,5.656v72c0,4.418,3.582,8,8,8v9.192    c0.001,2.348,1.034,4.577,2.824,6.096l8,6.808c1.445,1.228,3.279,1.903,5.176,1.904h16c1.896-0.001,3.731-0.676,5.176-1.904    l8-6.808c1.79-1.519,2.823-3.748,2.824-6.096v-9.192h8v16.896c-0.001,2.287,0.978,4.465,2.688,5.984l8,7.104    c1.464,1.299,3.354,2.017,5.312,2.016h16c1.958,0.001,3.848-0.717,5.312-2.016l8-7.104c1.71-1.519,2.689-3.697,2.688-5.984    v-16.896c4.418,0,8-3.582,8-8v-13.6l14.216-21.328l89.456-89.432c8.007,6.129,17.436,10.128,27.408,11.624    c13.232,21.464,25.336,42.064,25.336,68.6c0,63.056-48.16,127.88-109.832,148.136H23.999c-4.418,0-8,3.582-8,8v48    c0,4.418,3.582,8,8,8h432c4.418,0,8-3.582,8-8v-48C463.999,419.58,460.417,415.998,455.999,415.998z M351.999,19.31l60.688,60.688    l-4.688,4.688l-58.344-58.344l-2.344-2.344L351.999,19.31z M343.999,43.31l37.52,37.52c-3.146-0.533-6.329-0.811-9.52-0.832    c-0.224,0-0.432,0-0.656,0l-32-32L343.999,43.31z M115.311,199.998l12.688-12.688l12.688,12.688l-12.688,12.688L115.311,199.998z     M151.999,325.494l-2.944,2.504h-10.112l-2.944-2.504v-5.496h16V325.494z M207.999,333.302l-3.04,2.696h-9.92l-3.04-2.696v-13.304    h16V333.302z M217.343,291.558c-0.874,1.316-1.341,2.86-1.344,4.44v8h-88v-16h91.72L217.343,291.558z M127.999,271.998V243.31    l32-32l7.92,7.92c-8.073,19.133,0.893,41.187,20.026,49.259c11.261,4.751,24.129,3.733,34.502-2.731l6.24,6.24H127.999z     M180.967,233.654c0-12.035,9.757-21.792,21.792-21.792c12.03,0.013,21.779,9.762,21.792,21.792    c0,12.035-9.757,21.792-21.792,21.792C190.724,255.446,180.967,245.69,180.967,233.654z M239.999,260.686l-5.912-5.912    c9.141-13.446,8.536-31.261-1.496-44.056l69.064-69.064c3.07-3.178,2.982-8.242-0.196-11.312c-3.1-2.994-8.015-2.994-11.116,0    l-70.04,70.04c-5.388-2.926-11.413-4.478-17.544-4.52c-9.454,0.066-18.538,3.684-25.448,10.136l-6-6L319.999,51.31l32.136,32.136    c-27.003,9.237-43.607,36.386-39.528,64.632l-62.264,62.264c-3.178,3.07-3.266,8.134-0.196,11.312    c3.07,3.178,8.134,3.266,11.312,0.196c0.067-0.064,0.132-0.13,0.196-0.196l56.128-56.128c1.802,3.823,4.007,7.444,6.576,10.8    L239.999,260.686z M327.999,139.998c0-24.301,19.699-44,44-44s44,19.699,44,44c-0.026,24.29-19.71,43.974-44,44    C347.699,183.998,327.999,164.299,327.999,139.998z M404.415,267.862c0-27.2-10.688-48.64-22.696-68.72    c18.042-2.979,33.746-14.012,42.664-29.976c15.496,30.256,23.59,63.758,23.616,97.752c0,56.392-2.104,100.432-28.696,149.08    H316.799C368.551,385.006,404.415,326.686,404.415,267.862z M447.999,463.998h-416v-32h416V463.998z" fill="#8274af"/>
	</g>
</g>
<g>
	<g>
		<path d="M277.127,367.998H66.871c-10.724,0.335-19.159,9.275-18.872,20c-0.287,10.725,8.148,19.665,18.872,20h210.256    c11.046,0,20-8.954,20-20C297.127,376.953,288.173,367.998,277.127,367.998z M277.127,391.998H66.871c-1.36,0-2.872-1.648-2.872-4    s1.512-4,2.872-4h210.256c1.36,0,2.872,1.648,2.872,4S278.487,391.998,277.127,391.998z" fill="#8274af"/>
	</g>
</g>
<g>
	<g>
		<path d="M371.999,111.998c-15.464,0-28,12.536-28,28s12.536,28,28,28c15.464,0,28-12.536,28-28S387.463,111.998,371.999,111.998z     M371.999,151.998c-6.627,0-12-5.373-12-12c0-6.627,5.373-12,12-12c6.627,0,12,5.373,12,12    C383.999,146.626,378.627,151.998,371.999,151.998z" fill="#8274af"/>
	</g>
</g>
<g>
</g>
<g>
</g>
<g>
</g>
<g>
</g>
<g>
</g>
<g>
</g>
<g>
</g>
<g>
</g>
<g>
</g>
<g>
</g>
<g>
</g>
<g>
</g>
<g>
</g>
<g>
</g>
<g>
</g>
</svg>
